<svg xmlns="http://www.w3.org/2000/svg" viewBox="0 0 64 64" width="64" height="64">
  <defs>
    <linearGradient id="primaryGrad" x1="0%" y1="0%" x2="100%" y2="100%">
      <stop offset="0%" stop-color="#4E6B8F"/>
      <stop offset="100%" stop-color="#344860"/>
    </linearGradient>
    <linearGradient id="accentGrad" x1="0%" y1="0%" x2="100%" y2="100%">
      <stop offset="0%" stop-color="#C07B88"/>
      <stop offset="100%" stop-color="#A55F6D"/>
    </linearGradient>
  </defs>
  <rect width="64" height="64" rx="16" fill="url(#primaryGrad)"/>
  <!-- Elegant floral/medical silhouette -->
  <path d="M32 14 C26 22 20 28 20 36 C20 44 25.5 49 32 49 C38.5 49 44 44 44 36 C44 28 38 22 32 14 Z" fill="none" stroke="#FFFFFF" stroke-width="2.5" stroke-linecap="round"/>
  <path d="M32 23 C29 28 26 33 26 37 C26 41 28.5 44 32 44 C35.5 44 38 41 38 37 C38 33 35 28 32 23 Z" fill="url(#accentGrad)" opacity="0.85"/>
  <circle cx="32" cy="35" r="3" fill="#FFFFFF"/>
</svg>
